<svg xmlns="http://www.w3.org/2000/svg" viewBox="0 0 512 512">
  <defs><linearGradient id="g" x1="0" y1="0" x2="1" y2="1"><stop offset="0" stop-color="#047857"/><stop offset=".55" stop-color="#0d9488"/><stop offset="1" stop-color="#0284c7"/></linearGradient><radialGradient id="h" cx=".3" cy=".2" r=".9"><stop offset="0" stop-color="#fff" stop-opacity=".16"/><stop offset="1" stop-color="#fff" stop-opacity="0"/></radialGradient></defs>
  <rect width="512" height="512" rx="112" fill="url(#g)"/>
  <rect width="512" height="512" rx="112" fill="url(#h)"/>
  <g fill="#fff">
    <path d="M249 370c-40-24-88-32-137-27v62c49-5 97 3 137 27z"/>
    <path d="M263 370c40-24 88-32 137-27v62c-49-5-97 3-137 27z"/>
  </g>
  <path d="M256 372V262" stroke="#fff" stroke-width="14" stroke-linecap="round" fill="none"/>
  <path d="M256 266c4-76 62-128 142-132-4 80-62 130-142 132z" fill="#fff"/>
  <path d="M252 306c-14-50-56-80-114-80 6 58 52 86 114 80z" fill="#d9f99d"/>
  <path d="M272 248c28-34 62-62 104-92" stroke="url(#g)" stroke-width="7" stroke-linecap="round" fill="none" opacity=".55"/>
</svg>
